<?xml version="1.0" encoding="UTF-8"?>
<!-- Generator: Adobe Illustrator 17.0.0, SVG Export Plug-In . SVG Version: 6.00 Build 0)  -->
<!DOCTYPE svg PUBLIC "-//W3C//DTD SVG 1.1//EN" "http://www.w3.org/Graphics/SVG/1.1/DTD/svg11.dtd">
<svg version="1.1" id="Layer_1" xmlns="http://www.w3.org/2000/svg" xmlns:xlink="http://www.w3.org/1999/xlink" x="0px" y="0px" width="1001.51px" height="1007.05px" viewBox="0 0 1001.51 1007.05" enable-background="new 0 0 1001.51 1007.05" xml:space="preserve">
<path fill="#FFFFFF" d="M1001.51,503.52c0,17.75-0.91,35.29-2.7,52.56c-2.83,28.86-8.3,57.18-16.14,84.76  c-0.17,0.58-0.33,1.15-0.5,1.73c-0.29,1.03-0.59,2.06-0.9,3.09c-21.41,73.33-58.98,139.71-108.57,194.99  c-0.49,0.56-0.99,1.12-1.49,1.67c-72.56,80.17-170.5,136.7-281.06,156.73c-0.92,0.17-1.85,0.33-2.77,0.49  c-1.06,0.19-2.13,0.37-3.2,0.54c-1.09,0.18-2.19,0.36-3.3,0.53c-1.02,0.17-2.05,0.33-3.07,0.48c-0.08,0.02-0.15,0.03-0.23,0.04  c-5.25,0.81-10.53,1.55-15.83,2.2c-1.77,0.22-3.54,0.42-5.31,0.62c-1.77,0.2-3.55,0.39-5.33,0.57c-1.78,0.18-3.56,0.35-5.34,0.51  c-1.79,0.16-3.57,0.31-5.36,0.45c-1.79,0.15-3.58,0.28-5.38,0.4c-0.2,0.01-0.41,0.03-0.63,0.04c-1.48,0.1-2.97,0.2-4.46,0.28  c-1.61,0.1-3.22,0.18-4.83,0.26c-1.61,0.08-3.23,0.15-4.85,0.21c-1.39,0.06-2.78,0.1-4.17,0.15c-0.75,0.02-1.49,0.04-2.24,0.05  c-1.1,0.04-2.21,0.06-3.32,0.08c-1.48,0.03-2.96,0.06-4.45,0.07c-1.77,0.02-3.54,0.03-5.32,0.03c-42.13,0-83.05-5.23-122.15-15.09  c-1-0.25-2-0.5-3-0.76c-85.76-21.82-164.65-66.47-229.35-131.5c-11.01-11.08-21.27-22.65-30.87-34.63  C43.33,737.85,0,625.77,0,503.52c0-9.59,0.27-19.12,0.79-28.58H0.73c0.61-10.84,1.58-21.64,2.9-32.4c0.17-1.38,0.34-2.75,0.52-4.13  c4.73-36.84,13.42-72.43,25.62-106.33c0.21-0.57,0.41-1.13,0.61-1.68c7.5-20.58,16.28-40.51,26.27-59.72  c9.47-18.25,20.03-35.84,31.6-52.68C166.22,104.3,289.48,24.44,431.83,4.74C454.36,1.61,477.37,0,500.76,0  c61.07,0,119.6,10.99,173.7,31.15c1.21,0.44,2.41,0.89,3.61,1.35c1.28,0.49,2.56,0.98,3.84,1.48c1.28,0.49,2.55,0.99,3.82,1.5  c1.31,0.51,2.62,1.04,3.93,1.58c1.35,0.55,2.7,1.11,4.04,1.67c0.66,0.28,1.32,0.56,1.98,0.84c1.39,0.59,2.78,1.18,4.16,1.79  c87.09,37.99,161.35,100.14,214.39,178.05c11.19,16.42,21.42,33.53,30.63,51.27c7.16,13.78,13.71,27.94,19.6,42.43  c1.95,4.8,3.83,9.63,5.64,14.5c3.04,8.21,5.88,16.52,8.5,24.93c1.55,4.96,3.02,9.95,4.42,14.98c0.31,1.13,0.63,2.26,0.93,3.39  c0.62,2.26,1.22,4.53,1.79,6.8c0.28,1.07,0.55,2.14,0.81,3.21c0.59,2.35,1.16,4.71,1.71,7.08c0.26,1.13,0.52,2.26,0.77,3.4  c0.54,2.31,1.05,4.64,1.53,6.96c0.23,1.09,0.46,2.18,0.68,3.27c1.94,9.44,3.6,18.98,5,28.61c0.12,0.81,0.24,1.61,0.35,2.42  c0.15,1.06,0.3,2.13,0.44,3.2c0.02,0.13,0.03,0.26,0.05,0.38C1000,458.25,1001.51,480.71,1001.51,503.52z"/>
<path d="M181.48,527.62H0.73c3.98,69.96,20.94,137.11,51.13,198.96h168.92C197.27,663.32,184.28,596.17,181.48,527.62z   M56.65,270.68c-9.99,19.21-18.77,39.14-26.27,59.72c-0.2,0.55-0.4,1.11-0.61,1.68C17.63,366.47,8.91,402.14,4.15,438.41  c-0.18,1.38-0.35,2.75-0.52,4.13c-1.32,10.76-2.29,21.56-2.9,32.4h180.75c4.09-69.85,18.6-138.17,44.69-204.26H56.65z   M336.37,915.08c-38.02-40.92-68.21-86.9-93.12-137.11H82.04c10.18,16.21,21.24,31.98,33.35,47.1c9.6,11.98,19.86,23.55,30.87,34.63  c64.7,65.03,143.59,109.68,229.35,131.5c1,0.26,2,0.51,3,0.76c17.48,4.33,35.24,7.72,53.22,10.14c0,0,1.52-1.41,2.81-1.41  C399.31,976.94,366.55,948.01,336.37,915.08z M431.83,5.86V4.74C289.48,24.44,166.22,104.3,88.25,218H249.8  c22.22-44.8,51-86.9,86.57-125.12c30.18-32.92,62.94-62.09,98.27-85.72C433.35,7.16,431.83,7.16,431.83,5.86z M239.39,529.03  c2.45,67.14,16.84,135.7,43.16,197.55h184.84V529.03H239.39z M287.82,272.09c-28.78,64.68-44.57,134.41-48.43,204.26h228V272.09  H287.82z M308.64,779.38c19.65,34.34,42.12,68.56,69.49,97.48c27.61,30.35,56.51,56.69,89.26,77.85V779.38H308.64z M378.13,132.39  c-23.63,26.34-45.74,56.68-62.94,87.02h152.2V55.96C434.64,77.01,405.74,102.17,378.13,132.39z M518.4,779.38v179.09  c34.04-22.22,65.51-49.97,94.41-81.61c27.49-30.22,51.24-63.14,70.77-97.48H518.4z M518.4,529.03v197.55h190.1  c26.21-63.26,40.59-130.41,43.29-197.55H518.4z M614.21,131.1c-28.78-31.75-60.37-58.09-94.41-80.44V218h158.64  C659.95,187.66,639.13,158.73,614.21,131.1z M704.52,270.68H519.8v204.26h233.27C749.09,405.09,733.42,335.36,704.52,270.68z   M699.84,41.36c-1.38-0.61-2.77-1.2-4.16-1.79c-0.66-0.28-1.32-0.56-1.98-0.84c-1.34-0.56-2.69-1.12-4.04-1.67  c-1.31-0.54-2.62-1.07-3.93-1.58c-1.27-0.51-2.54-1.01-3.82-1.5c-1.28-0.5-2.56-0.99-3.84-1.48c-1.2-0.46-2.4-0.91-3.61-1.35  C637.12,17.33,598,7.94,557.71,3.28l1.4,3.88c0,0-1.4,0-2.57,1.41c35.21,23.63,69.37,51.39,99.55,84.31  c34.04,38.22,62.82,81.73,85.28,126.53h172.86C861.19,141.5,786.93,79.35,699.84,41.36z M997.08,436.24  c-0.02-0.12-0.03-0.25-0.05-0.38c-0.14-1.07-0.29-2.14-0.44-3.2c-0.11-0.81-0.23-1.61-0.35-2.42c-1.4-9.63-3.06-19.17-5-28.61  c-0.22-1.09-0.45-2.18-0.68-3.27c-0.48-2.32-0.99-4.65-1.53-6.96c-0.25-1.14-0.51-2.27-0.77-3.4c-0.55-2.37-1.12-4.73-1.71-7.08  c-0.26-1.07-0.53-2.14-0.81-3.21c-0.57-2.27-1.17-4.54-1.79-6.8c-0.3-1.13-0.62-2.26-0.93-3.39c-1.4-5.03-2.87-10.02-4.42-14.98  c-2.62-8.41-5.46-16.72-8.5-24.93c-1.81-4.87-3.69-9.7-5.64-14.5c-5.89-14.49-12.44-28.65-19.6-42.43H764.89  c26.09,66.09,40.59,135.82,44.57,205.67h191.27C1000.01,462.87,998.8,449.5,997.08,436.24z M809.46,527.62  c-2.69,68.55-15.68,135.7-39.31,198.96h179.58c12.73-26.1,23.34-53.13,31.54-80.92c0.31-1.03,0.61-2.06,0.9-3.09  c0.17-0.58,0.33-1.15,0.5-1.73c7.84-27.58,13.31-55.9,16.14-84.76c0.93-9.43,1.57-18.92,1.92-28.46H809.46z M746.64,779.38  c-23.75,48.8-53.82,94.78-91.95,137c-29.95,32.92-62.94,60.56-98.15,84.31c1.17,1.41,3.97,2.59,5.14,2.59  c5.31-0.63,10.62-1.35,15.9-2.15c0.08-0.01,0.15-0.02,0.23-0.04c1.02-0.15,2.05-0.31,3.07-0.48c1.11-0.17,2.21-0.35,3.3-0.53  c1.07-0.17,2.14-0.35,3.2-0.54c0.92-0.16,1.85-0.32,2.77-0.49c110.56-20.03,208.5-76.56,281.06-156.73c0.5-0.55,1-1.11,1.49-1.67  c17.09-19.33,33.13-39.57,46.73-61.27H746.64z"/>
<path fill="none" d="M1001.51,503.52c0,17.75-0.91,35.29-2.7,52.56c-2.99,29.06-8.45,57.38-16.14,84.76  c-0.17,0.58-0.33,1.15-0.5,1.73c-0.29,1.03-0.59,2.06-0.9,3.09c-21.41,73.33-58.98,139.71-108.57,194.99  c-0.49,0.56-0.99,1.12-1.49,1.67c-72.56,80.17-170.5,136.7-281.06,156.73c-0.92,0.17-1.85,0.33-2.77,0.49  c-1.06,0.19-2.13,0.37-3.2,0.54c-1.09,0.18-2.19,0.36-3.3,0.53c-1.02,0.17-2.05,0.33-3.07,0.48c-0.08,0.02-0.15,0.03-0.23,0.04  c-5.25,0.81-10.53,1.55-15.83,2.2c-1.77,0.22-3.54,0.42-5.31,0.62c-1.77,0.2-3.55,0.39-5.33,0.57c-1.78,0.18-3.56,0.35-5.34,0.51  c-1.79,0.16-3.57,0.31-5.36,0.45c-1.79,0.15-3.58,0.28-5.38,0.4c-0.2,0.01-0.41,0.03-0.63,0.04c-1.48,0.1-2.97,0.2-4.46,0.28  c-1.61,0.1-3.22,0.18-4.83,0.26c-1.61,0.08-3.23,0.15-4.85,0.21c-1.39,0.06-2.78,0.1-4.17,0.15c-0.75,0.02-1.49,0.04-2.24,0.05  c-1.1,0.04-2.21,0.06-3.32,0.08c-1.48,0.03-2.96,0.06-4.45,0.07c-1.77,0.02-3.54,0.03-5.32,0.03c-42.13,0-83.05-5.23-122.15-15.09  c-1-0.25-2-0.5-3-0.76c-103.46-26.77-193.98-85.95-260.22-166.13C43.33,737.85,0,625.77,0,503.52c0-9.59,0.27-19.12,0.79-28.58  c0.61-10.89,1.56-21.7,2.84-32.4c0.17-1.38,0.34-2.75,0.52-4.13c4.73-36.84,13.42-72.43,25.62-106.33c0.21-0.57,0.41-1.13,0.61-1.68  c7.5-20.58,16.28-40.51,26.27-59.72c9.47-18.25,20.03-35.84,31.6-52.68C166.22,104.3,289.48,24.44,431.83,4.74  C454.36,1.61,477.37,0,500.76,0c61.07,0,119.6,10.99,173.7,31.15c1.21,0.44,2.41,0.89,3.61,1.35c1.28,0.49,2.56,0.98,3.84,1.48  c1.28,0.49,2.55,0.99,3.82,1.5c1.31,0.51,2.62,1.04,3.93,1.58c1.35,0.55,2.7,1.11,4.04,1.67c0.66,0.28,1.32,0.56,1.98,0.84  c1.39,0.59,2.78,1.18,4.16,1.79c87.09,37.99,161.35,100.14,214.39,178.05c11.19,16.42,21.42,33.53,30.63,51.27  c7.16,13.78,13.71,27.94,19.6,42.43c1.95,4.8,3.83,9.63,5.64,14.5c3.04,8.21,5.88,16.52,8.5,24.93c1.55,4.96,3.02,9.95,4.42,14.98  c0.31,1.13,0.63,2.26,0.93,3.39c0.62,2.26,1.22,4.53,1.79,6.8c0.28,1.07,0.55,2.14,0.81,3.21c0.59,2.35,1.16,4.71,1.71,7.08  c0.26,1.13,0.52,2.26,0.77,3.4c0.54,2.31,1.05,4.64,1.53,6.96c0.23,1.09,0.46,2.18,0.68,3.27c1.94,9.44,3.6,18.98,5,28.61  c0.12,0.81,0.24,1.61,0.35,2.42c0.15,1.06,0.3,2.13,0.44,3.2c0.02,0.13,0.03,0.26,0.05,0.38  C1000,458.25,1001.51,480.71,1001.51,503.52z"/>
</svg>