<?xml version="1.0" encoding="UTF-8" standalone="no"?>
<svg xmlns:dc="http://purl.org/dc/elements/1.1/" xmlns:cc="http://creativecommons.org/ns#" xmlns:rdf="http://www.w3.org/1999/02/22-rdf-syntax-ns#" xmlns:svg="http://www.w3.org/2000/svg" xmlns="http://www.w3.org/2000/svg" xmlns:sodipodi="http://sodipodi.sourceforge.net/DTD/sodipodi-0.dtd" xmlns:inkscape="http://www.inkscape.org/namespaces/inkscape" version="1.1" x="0px" y="0px" viewBox="0 0 136.95015 136.9482" xml:space="preserve" id="svg48" sodipodi:docname="noun_1460610_cc.svg" width="136.95015" height="136.9482" inkscape:version="0.92.1 r15371"><metadata id="metadata54"><rdf:RDF><cc:Work rdf:about=""><dc:format>image/svg+xml</dc:format><dc:type rdf:resource="http://purl.org/dc/dcmitype/StillImage"/><dc:title/></cc:Work></rdf:RDF></metadata><defs id="defs52"/><sodipodi:namedview pagecolor="#ffffff" bordercolor="#666666" borderopacity="1" objecttolerance="10" gridtolerance="10" guidetolerance="10" inkscape:pageopacity="0" inkscape:pageshadow="2" inkscape:window-width="1174" inkscape:window-height="752" id="namedview50" showgrid="false" showguides="true" inkscape:guide-bbox="true" fit-margin-top="10" fit-margin-left="10" fit-margin-right="10" fit-margin-bottom="10" inkscape:zoom="2.085965" inkscape:cx="30.693701" inkscape:cy="94.572365" inkscape:window-x="0" inkscape:window-y="0" inkscape:window-maximized="0" inkscape:current-layer="svg48"><sodipodi:guide position="71.051848,129.28718" orientation="0,1" id="guide56" inkscape:locked="false"/></sodipodi:namedview><path d="m 114.28076,10 c -5.978,0 -10.98923,4.167254 -12.31464,9.745684 H 11.951086 c -0.676351,0 -1.302024,0.350844 -1.658715,0.92584 -0.3566925,0.574995 -0.3859296,1.292277 -0.08576,1.89456 l 5.441989,10.885929 -5.490718,12.813625 c -0.2105067,0.489233 -0.2105067,1.044737 0,1.53397 l 5.519955,12.877947 -5.518006,12.875997 c -0.2105066,0.489233 -0.2105066,1.044737 0,1.533971 l 5.518006,12.877946 -5.518006,12.876001 c -0.2105066,0.48923 -0.2105066,1.04473 0,1.53397 l 5.453685,12.72786 -5.334787,8.89196 c -0.3625399,0.60228 -0.3703364,1.35075 -0.02534,1.96473 0.346946,0.61203 0.996008,0.98821 1.697698,0.98821 H 113.3062 c 7.52366,0 13.64395,-6.12224 13.64395,-13.64395 V 111.84239 22.669389 C 126.95015,15.683683 121.26647,10 114.28076,10 Z M 113.3062,123.04993 H 15.393261 l 4.075645,-6.79274 c 0.321608,-0.53601 0.366438,-1.19482 0.120847,-1.76982 l -5.518006,-12.87794 5.518006,-12.876001 c 0.210506,-0.489234 0.210506,-1.044737 0,-1.533971 L 14.071747,74.321512 19.589753,61.445515 c 0.210506,-0.489234 0.210506,-1.044738 0,-1.533971 L 14.071747,47.033598 19.589753,34.157601 c 0.2261,-0.526267 0.208557,-1.126601 -0.04678,-1.639224 l -4.438184,-8.87442 h 86.506591 v 85.762013 c 0,5.37377 4.29394,9.74569 9.57221,9.74569 4.43818,0 8.04798,-3.67218 8.04798,-8.18638 0,-3.82615 -3.06209,-6.93892 -6.82782,-6.93892 v 3.89827 c 1.61583,0 2.92955,1.36245 2.92955,3.04065 0,2.36431 -1.86143,4.2881 -4.14971,4.2881 -3.12837,0 -5.67394,-2.62353 -5.67394,-5.84741 0,-4.29979 3.40124,-7.79654 7.58019,-7.79654 5.49267,0 9.96204,4.59021 9.96204,10.23296 v 1.46186 c 0,5.37377 -4.37191,9.74568 -9.74568,9.74568 z m -0.21636,-25.338777 c -2.90616,0 -5.55504,1.114906 -7.58019,2.935397 V 22.669389 c 0,-4.835809 3.93531,-8.771116 8.77111,-8.771116 4.83581,0 8.77112,3.935307 8.77112,8.771116 v 79.370791 c -2.52218,-2.664465 -6.05207,-4.329027 -9.96204,-4.329027 z" id="path2" inkscape:connector-curvature="0" style="stroke-width:1.94913673"/><path d="m 97.42268,94.836176 c 0.354743,-0.574995 0.387879,-1.292278 0.08576,-1.89651 L 89.711895,77.346572 c -0.660757,-1.321515 -2.826248,-1.321515 -3.487005,0 l -7.796547,15.593094 c -0.302116,0.604232 -0.268981,1.321515 0.08576,1.89651 0.354743,0.574995 0.980416,0.92584 1.656766,0.92584 h 0.703639 l -2.539726,7.143584 c -0.212456,0.59644 -0.120846,1.25914 0.243642,1.77566 0.364489,0.51848 0.958976,0.82644 1.592445,0.82644 h 5.84741 v 5.84741 h 3.898274 v -5.84741 h 5.84741 c 0.633469,0 1.227956,-0.30796 1.592445,-0.82644 0.366437,-0.51652 0.456098,-1.17922 0.243642,-1.77566 l -2.539725,-7.143584 h 0.703638 c 0.67635,0 1.302023,-0.350845 1.658715,-0.92584 z m -14.489882,6.773254 2.539725,-7.14359 c 0.212456,-0.596436 0.120847,-1.259142 -0.243642,-1.775664 -0.366438,-0.51847 -0.958975,-0.826434 -1.592445,-0.826434 h -0.311862 l 4.642844,-9.285687 4.642844,9.285687 H 92.2984 c -0.63347,0 -1.226007,0.307964 -1.592445,0.826434 -0.366438,0.516522 -0.456098,1.179228 -0.243642,1.775664 l 2.539725,7.14359 z" id="path4" inkscape:connector-curvature="0" style="stroke-width:1.94913673"/><path d="m 50.93382,91.863742 v -5.84741 h 3.898274 c 0.625673,0 1.214312,-0.300167 1.58075,-0.808892 0.366437,-0.508724 0.465843,-1.163634 0.268981,-1.756172 l -5.847411,-17.54223 c -0.267031,-0.797197 -1.009652,-1.33321 -1.84973,-1.33321 -0.840078,0 -1.582699,0.536013 -1.849731,1.33321 l -3.99768,11.993038 -3.997679,-11.994987 c -0.267032,-0.795248 -1.009653,-1.331261 -1.849731,-1.331261 -0.840078,0 -1.582699,0.536013 -1.84973,1.33321 l -5.847411,17.54223 c -0.198812,0.594487 -0.09746,1.249397 0.268981,1.756172 0.366438,0.506776 0.955077,0.808892 1.58075,0.808892 h 3.898274 v 5.84741 H 39.239 v -5.84741 h 3.898273 3.898274 v 5.84741 z m -16.787914,-9.745683 3.143957,-9.429924 3.143958,9.429924 z m 14.838778,-9.429924 3.143957,9.429924 h -6.287915 z" id="path6" inkscape:connector-curvature="0" style="stroke-width:1.94913673"/><path d="m 25.595043,48.982734 h 3.898273 v 5.847411 h 3.898274 v -5.847411 h 3.898273 c 0.625673,0 1.214312,-0.300167 1.58075,-0.808891 0.366438,-0.508725 0.465844,-1.163635 0.268981,-1.756172 L 33.292184,28.87544 c -0.267032,-0.797197 -1.009653,-1.333209 -1.849731,-1.333209 -0.840078,0 -1.582699,0.536012 -1.849731,1.333209 l -5.84741,17.542231 c -0.198812,0.594486 -0.09746,1.249396 0.268981,1.756172 0.366438,0.506775 0.955077,0.808891 1.58075,0.808891 z m 5.84741,-13.328196 3.143958,9.429923 h -6.287915 z" id="path8" inkscape:connector-curvature="0" style="stroke-width:1.94913673"/><path d="m 97.142005,35.909874 -5.847411,-5.84741 c -0.762112,-0.762112 -1.993966,-0.762112 -2.756079,0 l -4.46937,4.469371 -4.469371,-4.469371 c -0.762112,-0.762112 -1.993967,-0.762112 -2.756079,0 l -5.84741,5.84741 c -0.762113,0.762113 -0.762113,1.993967 0,2.75608 l 4.46937,4.46937 -4.46937,4.469371 c -0.762113,0.762112 -0.762113,1.993967 0,2.756079 l 5.84741,5.84741 c 0.762112,0.762113 1.993967,0.762113 2.756079,0 l 4.469371,-4.46937 4.46937,4.46937 c 0.380082,0.380082 0.879061,0.571097 1.37804,0.571097 0.498979,0 0.997958,-0.191015 1.378039,-0.571097 l 5.847411,-5.84741 c 0.762112,-0.762112 0.762112,-1.993967 0,-2.756079 l -4.469371,-4.469371 4.469371,-4.46937 c 0.762112,-0.762113 0.762112,-1.993967 0,-2.75608 z m -8.60349,5.847411 c -0.762112,0.762112 -0.762112,1.993967 0,2.756079 l 4.469371,4.46937 -3.091331,3.091331 -4.469371,-4.46937 c -0.380081,-0.380082 -0.87906,-0.571097 -1.378039,-0.571097 -0.498979,0 -0.997958,0.191015 -1.37804,0.571097 l -4.469371,4.46937 -3.09133,-3.091331 4.46937,-4.46937 c 0.762113,-0.762112 0.762113,-1.993967 0,-2.756079 l -4.46937,-4.469371 3.09133,-3.091331 4.469371,4.469371 c 0.762112,0.762112 1.993967,0.762112 2.756079,0 l 4.469371,-4.469371 3.091331,3.091331 z" id="path10" inkscape:connector-curvature="0" style="stroke-width:1.94913673"/><polygon points="9.293,51.707 11.586,54 9.293,56.293 10.707,57.707 13,55.414 15.293,57.707 16.707,56.293 14.414,54 16.707,51.707 15.293,50.293 13,52.586 10.707,50.293 " id="polygon12" transform="matrix(1.9491367,0,0,1.9491367,6.1036757,6.1017266)"/><path d="m 52.980414,105.03211 1.830239,3.44218 c 1.208465,-0.64322 2.391591,-1.34686 3.514294,-2.09533 l -2.159644,-3.24336 c -1.017449,0.6744 -2.089474,1.31177 -3.184889,1.89651 z" id="path14" inkscape:connector-curvature="0" style="stroke-width:1.94913673"/><path d="M 60.188321,43.645998 59.6718,39.782809 c -1.522276,0.20271 -2.880824,0.448302 -4.038611,0.728977 l 0.916094,3.787173 c 1.027195,-0.24754 2.253202,-0.469742 3.639038,-0.652961 z" id="path16" inkscape:connector-curvature="0" style="stroke-width:1.94913673"/><path d="m 48.707906,58.399014 c 0.910247,1.011602 2.03295,1.962781 3.334973,2.828197 l 2.159644,-3.243363 c -1.031094,-0.688045 -1.906256,-1.424819 -2.600149,-2.196677 z" id="path18" inkscape:connector-curvature="0" style="stroke-width:1.94913673"/><path d="m 59.186465,64.905232 1.736681,-3.490904 C 60.217559,61.063484 59.502225,60.728232 58.784943,60.39493 l -1.407277,-0.664656 -1.689901,3.514294 1.446259,0.682198 c 0.688046,0.319658 1.376091,0.641266 2.052441,0.978466 z" id="path20" inkscape:connector-curvature="0" style="stroke-width:1.94913673"/><path d="m 46.312417,54.379894 3.70336,-1.214312 c -0.126694,-0.387878 -0.212456,-0.783553 -0.251439,-1.177279 -0.01559,-0.167625 -0.02534,-0.3372 -0.02534,-0.504826 0,-0.376184 0.04093,-0.760163 0.122795,-1.136347 L 46.05318,49.516798 c -0.142287,0.649062 -0.212456,1.30982 -0.212456,1.966679 0,0.300167 0.01364,0.600334 0.04483,0.898552 0.06822,0.670503 0.212456,1.342955 0.426861,1.997865 z" id="path22" inkscape:connector-curvature="0" style="stroke-width:1.94913673"/><path d="m 46.135046,107.86616 1.138296,3.72674 c 1.298125,-0.39567 2.590402,-0.85956 3.843697,-1.37998 l -1.494988,-3.60201 c -1.136346,0.47364 -2.309727,0.89466 -3.487005,1.25525 z" id="path24" inkscape:connector-curvature="0" style="stroke-width:1.94913673"/><path d="m 53.520325,45.464543 -2.083627,-3.292092 c -1.298125,0.820586 -2.463709,1.886764 -3.372007,3.085483 l 3.104975,2.356506 c 0.627622,-0.830332 1.442361,-1.574902 2.350659,-2.149897 z" id="path26" inkscape:connector-curvature="0" style="stroke-width:1.94913673"/><path d="m 38.894003,109.30462 0.348895,3.88268 c 1.329312,-0.12085 2.695656,-0.31771 4.06395,-0.59059 l -0.762112,-3.82226 c -1.231855,0.24559 -2.459811,0.42491 -3.650733,0.53017 z" id="path28" inkscape:connector-curvature="0" style="stroke-width:1.94913673"/><path d="m 68.329866,86.622514 c -0.198812,0.900501 -0.456098,1.801002 -0.766011,2.674215 l 3.674123,1.302024 c 0.364488,-1.023297 0.666604,-2.079729 0.898552,-3.13811 0.06627,-0.304066 0.128643,-0.612029 0.185168,-0.919993 l -3.833952,-0.703638 c -0.04873,0.263133 -0.101355,0.526267 -0.15788,0.785502 z" id="path30" inkscape:connector-curvature="0" style="stroke-width:1.94913673"/><path d="m 68.717744,78.656392 c 0.111101,0.918043 0.165676,1.863375 0.165676,2.816503 0,0.261184 -0.0039,0.51847 -0.01169,0.773807 l 3.896324,0.132541 c 0.0097,-0.306014 0.01559,-0.612029 0.01364,-0.914145 0,-1.101262 -0.06627,-2.206423 -0.194914,-3.280397 z" id="path32" inkscape:connector-curvature="0" style="stroke-width:1.94913673"/><path d="m 67.71004,43.12168 -0.08381,-3.898273 c -1.171431,0 -2.537776,0.05263 -3.952849,0.153982 l 0.276777,3.886578 c 1.323464,-0.09161 2.59625,-0.142287 3.759885,-0.142287 z" id="path34" inkscape:connector-curvature="0" style="stroke-width:1.94913673"/><path d="m 64.16456,95.635322 3.138111,2.311676 c 0.836179,-1.134397 1.586597,-2.317523 2.23371,-3.520141 l -3.43243,-1.845832 c -0.559402,1.03694 -1.212363,2.066085 -1.939391,3.054297 z" id="path36" inkscape:connector-curvature="0" style="stroke-width:1.94913673"/><path d="m 64.788284,69.010114 2.98023,-2.512437 c -0.458047,-0.543809 -0.949229,-1.062279 -1.475496,-1.555411 -0.526267,-0.493132 -1.112957,-0.968721 -1.746427,-1.417022 l -2.251253,3.18294 c 0.493132,0.350844 0.931688,0.701689 1.33321,1.079822 0.413217,0.389827 0.799146,0.797196 1.159736,1.222108 z" id="path38" inkscape:connector-curvature="0" style="stroke-width:1.94913673"/><path d="m 68.00436,75.157692 3.740393,-1.099314 c -0.411268,-1.401429 -0.945331,-2.732689 -1.582699,-3.962595 l -3.459718,1.797105 c 0.522369,1.005754 0.960925,2.105067 1.302024,3.264804 z" id="path40" inkscape:connector-curvature="0" style="stroke-width:1.94913673"/><path d="m 59.124093,100.92918 2.492946,2.99582 c 1.072025,-0.8927 2.085576,-1.83804 3.015314,-2.81065 l -2.820401,-2.691763 c -0.824484,0.867366 -1.730833,1.709393 -2.687859,2.506593 z" id="path42" inkscape:connector-curvature="0" style="stroke-width:1.94913673"/></svg>